<?xml version="1.0" encoding="utf-8"?>
<!-- Generator: Adobe Illustrator 16.0.4, SVG Export Plug-In . SVG Version: 6.00 Build 0)  -->
<!DOCTYPE svg PUBLIC "-//W3C//DTD SVG 1.1//EN" "http://www.w3.org/Graphics/SVG/1.1/DTD/svg11.dtd">
<svg version="1.1" id="Layer_1" xmlns="http://www.w3.org/2000/svg" xmlns:xlink="http://www.w3.org/1999/xlink" x="0px" y="0px"
	 width="386.582px" height="500px" viewBox="206.667 0 386.582 500" enable-background="new 206.667 0 386.582 500"
	 xml:space="preserve">
<g>
	<g>
		<path fill='#000000' d="M449.587,500.5l-3.179-8.9c0,0,95.359-105.85,95.995-105.85s6.357,5.086,6.357,5.723
			C548.761,392.107,449.587,500.5,449.587,500.5z"/>
	</g>
	<path fill='#000000' d="M586.904,90.138c-14.939-36.555-54.99-65.48-82.645-65.48s-84.234,32.74-84.234,32.74
		c-45.137,21.933-81.691,42.911-93.452,64.208c-11.761,20.979-13.351,38.145-13.351,38.145s-35.918-12.397-60.711-2.226
		c-20.344,8.265-41.959,24.158-45.455,62.619c-3.496,38.462,17.164,67.388,38.144,77.876c20.979,10.49,47.68,6.041,47.997,5.723
		c0-0.318-3.814-7.947-3.814-7.947c-4.449,0.318-16.211,0.318-16.211,0.318c-28.926,0-52.129-24.158-52.129-53.084
		c0-11.125,3.496-21.614,9.535-30.196c2.861-4.45,6.357-8.265,10.49-11.125c8.9-6.993,20.343-11.443,32.422-11.443
		c16.529,0,34.329,6.993,40.687,20.343c-1.907,0-17.165-2.225-30.515,8.265c-16.211,12.079-10.172,35.282-10.172,35.282
		c8.9-10.171,61.029-20.343,71.837,40.051c10.808,60.395-27.972,87.414-27.972,87.414c26.701-4.451,68.341-21.934,82.645-35.283
		c12.079-11.125,42.275-38.145,42.594-85.506c0.953-39.415-6.993-71.52-12.079-87.73c-3.814-12.078-8.9-24.793-18.436-48.315
		c-9.536-23.521-8.265-45.772,6.039-55.943c14.304-10.172,66.751,2.225,82.327,55.626c15.575,53.401-3.179,121.424-36.236,125.238
		V25.929h-8.583v352.511c-21.297-6.992-92.181-14.621-142.403,19.391s-51.494,89.002-51.494,89.002
		c11.126-18.119,62.938-39.416,115.703-23.84c52.766,15.574,68.022,36.555,72.155,37.189c1.271,0,76.605-84.553,76.605-84.553
		c-19.39-20.979-61.666-34.646-61.666-34.646V259.559c0,0,50.223-1.271,88.048-38.461C590.4,184.226,601.844,126.691,586.904,90.138
		z"/>
	<path fill='#000000' d="M424.157-0.5c0,0-2.542,14.304-22.886,23.204c-20.025,9.218-51.494-7.312-80.42-13.351
		c-29.243-6.039-71.201-5.086-86.776,26.064c-15.575,31.151-7.946,62.619,21.614,78.513c29.879,15.894,65.162-8.265,65.162-8.265
		s2.226-12.078,1.908-12.078c-1.271,0-12.397,9.218-27.02,12.396c-5.086,1.271-9.854,1.907-14.939,1.907
		c-5.086,0.317-10.489-0.318-15.893-2.543c-13.986-5.404-21.934-18.118-18.119-27.654c3.814-9.854,13.668-13.668,32.105-7.629
		c18.436,6.04,32.739,15.258,68.34,11.443c35.602-3.814,61.666-32.422,71.202-51.176C427.972,11.579,424.157-0.5,424.157-0.5z"/>
</g>
</svg>
